<?xml version="1.0" encoding="UTF-8" standalone="no"?>
<!-- Created with Inkscape (http://www.inkscape.org/) -->

<svg
   width="32"
   height="32"
   viewBox="0 0 32 32"
   version="1.1"
   id="svg1"
   inkscape:version="1.3.2 (1:1.3.2+202311252150+091e20ef0f)"
   sodipodi:docname="favicon.svg"
   xmlns:inkscape="http://www.inkscape.org/namespaces/inkscape"
   xmlns:sodipodi="http://sodipodi.sourceforge.net/DTD/sodipodi-0.dtd"
   xmlns:xlink="http://www.w3.org/1999/xlink"
   xmlns="http://www.w3.org/2000/svg"
   xmlns:svg="http://www.w3.org/2000/svg">
  <sodipodi:namedview
     id="namedview1"
     pagecolor="#505050"
     bordercolor="#eeeeee"
     borderopacity="1"
     inkscape:showpageshadow="0"
     inkscape:pageopacity="0"
     inkscape:pagecheckerboard="0"
     inkscape:deskcolor="#505050"
     inkscape:document-units="px"
     inkscape:zoom="4"
     inkscape:cx="20.5"
     inkscape:cy="24.25"
     inkscape:window-width="1291"
     inkscape:window-height="704"
     inkscape:window-x="0"
     inkscape:window-y="0"
     inkscape:window-maximized="1"
     inkscape:current-layer="layer1" />
  <defs
     id="defs1">
    <linearGradient
       inkscape:collect="always"
       xlink:href="#linearGradient10"
       id="linearGradient11"
       gradientUnits="userSpaceOnUse"
       gradientTransform="matrix(0.0969845,0,0,0.07256312,17.616537,-1.6285186)"
       x1="29.875244"
       y1="87.85791"
       x2="108.07422"
       y2="479.5376" />
    <linearGradient
       id="linearGradient10"
       inkscape:collect="always">
      <stop
         style="stop-color:#001b48;stop-opacity:1;"
         offset="0"
         id="stop9" />
      <stop
         style="stop-color:#355f95;stop-opacity:1;"
         offset="1"
         id="stop10" />
    </linearGradient>
    <linearGradient
       inkscape:collect="always"
       xlink:href="#linearGradient10"
       id="linearGradient9"
       gradientUnits="userSpaceOnUse"
       gradientTransform="matrix(-0.0969845,0,0,0.07256312,14.205396,-1.7336577)"
       x1="29.875244"
       y1="87.85791"
       x2="108.07422"
       y2="479.5376" />
    <linearGradient
       inkscape:collect="always"
       xlink:href="#linearGradient12"
       id="linearGradient13"
       x1="-19.925516"
       y1="-990.09729"
       x2="-25.362507"
       y2="-1748.566"
       gradientUnits="userSpaceOnUse"
       gradientTransform="matrix(0.0360585,0,0,0.0360585,17.708977,61.41295)" />
    <linearGradient
       id="linearGradient12"
       inkscape:collect="always">
      <stop
         style="stop-color:#b3b3b3;stop-opacity:1;"
         offset="0"
         id="stop12" />
      <stop
         style="stop-color:#7d7d7d;stop-opacity:1;"
         offset="1"
         id="stop13" />
    </linearGradient>
  </defs>
  <g
     inkscape:label="Capa 1"
     inkscape:groupmode="layer"
     id="layer1">
    <path
       style="fill:url(#linearGradient11);stroke-width:0.0838898"
       d="m 20.123152,3.6915983 7.511949,3.2275316 -0.11891,24.5433541 -7.393913,-3.95503 z"
       id="path2"
       sodipodi:nodetypes="ccccc"
       inkscape:export-filename="favicon.png"
       inkscape:export-xdpi="96"
       inkscape:export-ydpi="96" />
    <path
       style="fill:url(#linearGradient9);stroke-width:0.0838898"
       d="M 11.698757,3.5864593 4.1868078,6.8141232 4.3057183,31.357478 11.699617,27.402447 Z"
       id="path4"
       sodipodi:nodetypes="ccccc" />
    <path
       style="fill:url(#linearGradient13);stroke-width:0.0880823"
       d="m 12.120981,0.07860106 7.511937,3.55830904 -0.11891,27.0578209 -7.3939,-4.360227 z"
       id="path7"
       sodipodi:nodetypes="ccccc" />
    <path
       style="fill:#fbfbfb;fill-opacity:1;stroke-width:0.0434877"
       d="m 11.015407,24.975642 c -0.145964,-0.115204 -0.14615,-0.25795 -3.73e-4,-0.403608 0.160477,-0.160489 0.353184,-0.201539 0.95135,-0.20273 0.880229,0 1.751586,-0.156783 2.305712,-0.410228 0.550099,-0.251592 0.736066,-0.49193 0.86263,-1.114553 0.104609,-0.514837 0.102888,-0.700354 -0.0079,-0.856341 -0.289199,-0.406123 -0.288828,-0.839259 0.0013,-1.149512 l 0.122353,-0.131093 v -5.290456 c 0,-5.243314 -6.5e-4,-5.290852 -0.087,-5.344746 -0.111627,-0.06887 -0.111627,-0.211337 0,-0.2809893 0.06185,-0.039721 0.087,-0.1019621 0.087,-0.2178251 V 9.4100257 h -0.280434 c -0.61938,0 -2.02075,0.2329215 -3.133331,0.5207959 -0.358771,0.092693 -1.133158,0.3264064 -1.720864,0.5190734 -0.5876926,0.192667 -1.1784975,0.37527 -1.3129007,0.405727 l -0.2444136,0.05561 1.6977183,3.819832 1.697705,3.819965 -0.163112,0.236893 c -0.419743,0.60939 -1.17538,1.076425 -2.1418248,1.323515 C 8.9997818,20.27762 7.8566657,20.296556 7.1182557,20.153813 6.1333242,19.963262 5.2431112,19.440215 4.7940589,18.788192 L 4.6309608,18.5513 6.3351144,14.716768 c 0.9373004,-2.109005 1.6975327,-3.838371 1.6894288,-3.842872 -0.00794,-0.01324 -0.1046094,-0.05032 -0.2145287,-0.101963 -0.3629417,-0.169096 -0.4321959,-0.56542 -0.1391042,-0.7959582 0.1250018,-0.09799 0.369576,-0.1165277 0.4392935,-0.031777 0.025291,0.030453 0.052039,0.1428772 0.059719,0.2500032 0.013242,0.185913 0.020525,0.195447 0.1591254,0.208821 0.2352918,0.02251 0.6757636,-0.136919 1.8944628,-0.6860517 1.769331,-0.7972825 2.664151,-1.1345485 3.510031,-1.3229778 0.408956,-0.091368 1.205934,-0.201009 1.456348,-0.201009 0.100776,0 0.07892,-0.3155497 -0.02634,-0.3813608 -0.113084,-0.070181 -0.11123,-0.212132 0.004,-0.2815186 0.07322,-0.043697 0.344137,-0.4948423 0.344137,-0.572571 0,-0.013242 -0.07653,-0.063561 -0.170077,-0.1152028 -0.559209,-0.3143579 -0.57776,-1.1079329 -0.03429,-1.4675773 0.240814,-0.1594301 0.667422,-0.166713 0.910274,-0.01589 0.559938,0.3481243 0.552258,1.1650045 -0.01403,1.483335 -0.09361,0.052967 -0.170091,0.1046094 -0.170091,0.1152029 0,0.078126 0.270821,0.5283436 0.344126,0.5725709 0.114937,0.068856 0.116923,0.2109403 0.004,0.2815185 -0.105272,0.066209 -0.127121,0.3812285 -0.02635,0.3812285 0.03337,0 0.263285,0.021187 0.510984,0.046346 1.185966,0.1204995 2.16278,0.4449212 4.453249,1.4769786 1.220765,0.5500586 1.661237,0.7096226 1.896622,0.6871116 0.141223,-0.01457 0.145631,-0.01986 0.158914,-0.230538 0.0079,-0.119176 0.0368,-0.2313322 0.06514,-0.2494736 0.09733,-0.062231 0.322554,-0.034426 0.433943,0.054286 0.293079,0.2305366 0.223825,0.6268606 -0.139116,0.7959576 -0.109906,0.05031 -0.206412,0.09667 -0.214516,0.101962 -0.0079,0.01323 0.751876,1.733339 1.688872,3.841681 l 1.703624,3.83334 -0.110966,0.167506 c -0.487453,0.736636 -1.394509,1.262862 -2.516054,1.459634 -0.531681,0.09402 -1.536832,0.09402 -2.05972,0 -1.058078,-0.186974 -1.913995,-0.655597 -2.421642,-1.325892 -0.126855,-0.167508 -0.199127,-0.302838 -0.185145,-0.346801 0.01324,-0.03972 0.77542,-1.764588 1.69515,-3.832941 l 1.67224,-3.760508 -0.241766,-0.05429 C 22.612009,10.826622 22.021099,10.644549 21.431856,10.452015 20.8426,10.259348 20.066942,10.025499 19.70817,9.9322781 18.599986,9.6445361 17.195757,9.4108201 16.57484,9.4108201 h -0.280432 v 0.163535 c 0,0.1165275 0.02502,0.1791597 0.08699,0.217825 0.04779,0.029129 0.087,0.092694 0.087,0.1406275 0,0.047665 -0.03906,0.1099064 -0.087,0.1404934 -0.0862,0.05429 -0.08699,0.101963 -0.08699,5.344747 v 5.290456 l 0.124206,0.132946 c 0.15036,0.16102 0.24439,0.471007 0.209021,0.689099 -0.0143,0.0874 -0.08541,0.255696 -0.157894,0.372356 -0.15134,0.243383 -0.162661,0.385731 -0.06939,0.872892 0.120632,0.630439 0.303567,0.905072 0.754579,1.133225 0.522888,0.264569 1.282193,0.415259 2.248877,0.446245 0.76917,0.02516 0.94322,0.05959 1.11981,0.224447 0.150571,0.140495 0.152333,0.280724 0.0053,0.39659 -0.114275,0.09004 -0.126193,0.09004 -4.75602,0.09004 -4.629762,0 -4.641719,0 -4.756007,-0.09004 z m 0.517974,-6.509222 c -0.104079,-0.272514 -3.2243532,-7.271017 -3.2418057,-7.271017 -0.017479,0 -3.1377793,6.998503 -3.2418193,7.271017 -0.027543,0.07151 0.1446258,0.0768 3.2418193,0.0768 3.0971937,0 3.2693227,-0.01323 3.2418057,-0.0768 z m 14.959703,0 c -0.10408,-0.272514 -3.224354,-7.271017 -3.241806,-7.271017 -0.01748,0 -3.13778,6.998503 -3.241819,7.271017 -0.02754,0.07151 0.144626,0.0768 3.241819,0.0768 3.097194,0 3.269322,-0.01323 3.241806,-0.0768 z"
       id="path15" />
  </g>
</svg>
