<?xml version="1.0" encoding="UTF-8" standalone="no"?>
<!-- Created with Inkscape (http://www.inkscape.org/) -->

<svg
   width="48"
   height="48"
   viewBox="0 0 48 48"
   version="1.1"
   id="svg1"
   inkscape:version="1.3.2 (1:1.3.2+202311252150+091e20ef0f)"
   sodipodi:docname="email-icon.svg"
   xmlns:inkscape="http://www.inkscape.org/namespaces/inkscape"
   xmlns:sodipodi="http://sodipodi.sourceforge.net/DTD/sodipodi-0.dtd"
   xmlns="http://www.w3.org/2000/svg"
   xmlns:svg="http://www.w3.org/2000/svg">
  <sodipodi:namedview
     id="namedview1"
     pagecolor="#505050"
     bordercolor="#eeeeee"
     borderopacity="1"
     inkscape:showpageshadow="0"
     inkscape:pageopacity="0"
     inkscape:pagecheckerboard="0"
     inkscape:deskcolor="#505050"
     inkscape:document-units="px"
     inkscape:zoom="2.3020833"
     inkscape:cx="39.963801"
     inkscape:cy="28.669683"
     inkscape:window-width="1291"
     inkscape:window-height="704"
     inkscape:window-x="0"
     inkscape:window-y="0"
     inkscape:window-maximized="1"
     inkscape:current-layer="layer1" />
  <defs
     id="defs1" />
  <g
     inkscape:label="Capa 1"
     inkscape:groupmode="layer"
     id="layer1">
    <path
       style="fill:#ffffff;stroke-width:0.09124"
       d="M 21.94231,46.936215 C 16.35231,46.358501 11.560442,44.088077 7.6126694,40.14673 5.6031936,38.140526 4.3426362,36.388866 3.1458587,33.939682 2.0200511,31.635732 1.3732986,29.586916 0.98571746,27.096688 c -0.28471114,-1.829247 -0.28471114,-5.01374 0,-6.842992 C 1.7768478,15.170615 3.9771692,10.836915 7.6126694,7.2014186 9.623587,5.1905003 11.376214,3.9297053 13.821959,2.7346083 16.125904,1.6088004 18.174721,0.96204264 20.66495,0.57446524 c 1.83133,-0.28501361 5.014923,-0.2847724 6.84299,5.231e-4 2.528586,0.3946717 4.543006,1.03001396 6.842992,2.15825176 2.458495,1.2059958 4.20113,2.4599783 6.209285,4.4681346 2.008155,2.0081562 3.262142,3.7507913 4.468131,6.2092863 1.117178,2.277428 1.7706,4.348638 2.158827,6.84299 0.284738,1.829253 0.284738,5.013748 0,6.842991 -0.789126,5.070211 -3.00066,9.425991 -6.626958,13.052281 -2.008155,2.008156 -3.75079,3.262139 -6.209285,4.468131 -2.272307,1.114665 -4.394836,1.784119 -6.814836,2.149428 -1.406064,0.212239 -4.325127,0.300832 -5.593786,0.169676 z M 37.480009,34.004158 c 0.604,-0.322492 1.083232,-0.80562 1.361766,-1.372809 l 0.25362,-0.516471 v -8.439685 -8.439687 l -0.25362,-0.516469 C 38.563222,14.151845 38.084002,13.668729 37.480004,13.346229 L 37.08812,13.136981 H 24.086438 11.084759 l -0.391884,0.209248 c -0.603993,0.322497 -1.083227,0.805616 -1.3617624,1.372808 l -0.2536205,0.516469 -0.024745,8.250145 c -0.027465,9.124308 -0.045127,8.815389 0.5531552,9.604 0.329907,0.434854 1.0235837,0.941296 1.4664837,1.070636 0.168255,0.04912 5.583851,0.07729 13.150884,0.06831 l 12.864824,-0.0151 z M 11.645805,31.719328 C 11.5068,31.565743 11.496204,30.940873 11.517607,24.159653 l 0.02323,-7.392228 5.38315,4.279323 c 2.96073,2.353632 5.677995,4.506749 6.038361,4.784703 0.758121,0.584752 1.173067,0.692342 1.645283,0.426607 0.161284,-0.09078 2.127167,-1.622567 4.368661,-3.404024 2.241491,-1.781458 4.880958,-3.877709 5.865472,-4.658341 l 1.79003,-1.41932 0.02323,7.387753 c 0.02144,6.777049 0.01063,7.401597 -0.128168,7.555202 -0.145586,0.160891 -0.63508,0.167439 -12.440641,0.167439 -11.805562,0 -12.295065,-0.0062 -12.440643,-0.167439 z m 7.29549,-12.169873 -5.089839,-4.040231 5.117497,-0.02355 c 2.81462,-0.01297 7.421619,-0.01297 10.23778,0 l 5.120286,0.02355 -5.035636,3.997134 c -2.769599,2.198459 -5.086173,4.016562 -5.147942,4.040264 -0.06176,0.02355 -2.402735,-1.77501 -5.202146,-3.997136 z"
       id="path1" />
  </g>
</svg>
