<?xml version="1.0" encoding="UTF-8" standalone="no"?>
<!-- Created with Inkscape (http://www.inkscape.org/) -->

<svg
   width="48"
   height="48"
   viewBox="0 0 48 48"
   version="1.1"
   id="svg1"
   xml:space="preserve"
   inkscape:version="1.3.2 (1:1.3.2+202311252150+091e20ef0f)"
   sodipodi:docname="phone-icon.svg"
   xmlns:inkscape="http://www.inkscape.org/namespaces/inkscape"
   xmlns:sodipodi="http://sodipodi.sourceforge.net/DTD/sodipodi-0.dtd"
   xmlns="http://www.w3.org/2000/svg"
   xmlns:svg="http://www.w3.org/2000/svg"><sodipodi:namedview
     id="namedview1"
     pagecolor="#505050"
     bordercolor="#eeeeee"
     borderopacity="1"
     inkscape:showpageshadow="0"
     inkscape:pageopacity="0"
     inkscape:pagecheckerboard="0"
     inkscape:deskcolor="#505050"
     inkscape:document-units="px"
     inkscape:zoom="6.5112749"
     inkscape:cx="29.487313"
     inkscape:cy="22.115484"
     inkscape:window-width="1291"
     inkscape:window-height="704"
     inkscape:window-x="0"
     inkscape:window-y="0"
     inkscape:window-maximized="1"
     inkscape:current-layer="layer1" /><defs
     id="defs1" /><g
     inkscape:label="Capa 1"
     inkscape:groupmode="layer"
     id="layer1"><path
       style="fill:#ffffff;stroke-width:0.0777335"
       d="m 22.585124,47.152338 c -0.149637,-0.01722 -0.656848,-0.0698 -1.127133,-0.116795 C 19.332182,46.823102 16.999034,46.206646 14.835777,45.28585 9.4707105,43.002188 4.9366984,38.468185 2.6533713,33.103472 1.3393155,30.01607 0.78631182,27.283347 0.78631182,23.877188 c 0,-2.34845 0.1800294,-3.804127 0.73463718,-5.940153 C 3.4526591,10.497233 9.1062505,4.3962232 16.429311,1.8488415 18.93469,0.97732617 21.245599,0.59888755 24.062058,0.59888755 c 0.972312,0 2.12872,0.0458243 2.60407,0.10318176 5.353973,0.64607059 10.116133,2.94670549 13.870241,6.70081139 3.356898,3.3568983 5.595019,7.6082513 6.447093,12.2463783 0.29642,1.613513 0.354346,2.304677 0.354346,4.227929 0,1.92325 -0.05793,2.614418 -0.354346,4.227929 -0.852074,4.638128 -3.090195,8.88948 -6.447093,12.246379 -3.685061,3.685061 -8.349733,5.975725 -13.559305,6.658523 -0.827576,0.108467 -3.838834,0.206046 -4.39194,0.142319 z m 6.840543,-7.038723 c 0.538839,-0.139899 2.286454,-0.941816 2.379068,-1.091669 0.03374,-0.05459 -4.302283,-7.669443 -4.476627,-7.861784 -0.03132,-0.03456 -0.280537,0.01273 -0.5538,0.105094 -0.68217,0.230564 -1.683158,0.18862 -2.376868,-0.0996 -1.944012,-0.807676 -4.126492,-3.437752 -5.167891,-6.22775 -1.071985,-2.871951 -0.972448,-5.042236 0.285731,-6.229996 l 0.411711,-0.388667 -1.435594,-2.487471 c -0.789577,-1.368109 -1.806774,-3.134603 -2.26044,-3.92554 -0.453664,-0.790938 -0.835498,-1.452 -0.848519,-1.469031 -0.01302,-0.01703 -0.302281,0.137462 -0.642805,0.343317 -2.322976,1.4043 -3.038359,2.579702 -3.036366,4.988864 0.0048,5.869346 4.60127,15.305573 10.141452,20.81993 2.290164,2.27949 4.318674,3.562831 5.870814,3.714181 0.443157,0.04321 1.088177,-0.02841 1.710134,-0.189883 z m 5.375978,-2.147242 c 1.423101,-0.817784 1.620033,-1.004739 1.620033,-1.537955 0,-0.34391 -0.01163,-0.366046 -2.041776,-3.883953 -2.492058,-4.318335 -2.530459,-4.380685 -2.776414,-4.507875 -0.475287,-0.245778 -0.728261,-0.169755 -2.131803,0.640637 -0.73371,0.423641 -1.384722,0.854694 -1.47609,0.97737 -0.112957,0.151658 -0.162637,0.331787 -0.160792,0.583001 0.0024,0.33274 0.189265,0.686162 2.205593,4.172472 1.211606,2.094915 2.242316,3.858333 2.290466,3.918702 0.172021,0.215685 0.558847,0.394927 0.852918,0.395213 0.236482,2.34e-4 0.574655,-0.158131 1.617865,-0.757612 z M 22.935147,17.518807 c 2.021967,-1.16657 2.048527,-1.259055 0.919768,-3.202832 C 23.470094,13.653297 22.461883,11.90924 21.614442,10.440292 19.945988,7.5482036 19.888777,7.4762693 19.256634,7.4757218 18.97811,7.4754885 18.733002,7.5834428 17.818565,8.10914 c -1.32635,0.762503 -1.572349,0.9382773 -1.724266,1.2320526 -0.257355,0.4976704 -0.319911,0.3571486 1.747502,3.9253814 0.743133,1.282602 1.652135,2.856139 2.020009,3.496752 1.061555,1.848602 1.143687,1.868791 3.073337,0.755481 z"
       id="path1" /></g></svg>
