<?xml version="1.0" encoding="UTF-8" standalone="no"?>
<!-- Created with Inkscape (http://www.inkscape.org/) -->

<svg
   width="16"
   height="16"
   viewBox="0 0 16 16"
   version="1.1"
   id="svg1"
   xml:space="preserve"
   inkscape:version="1.3.2 (1:1.3.2+202311252150+091e20ef0f)"
   sodipodi:docname="star-rewiew.svg"
   xmlns:inkscape="http://www.inkscape.org/namespaces/inkscape"
   xmlns:sodipodi="http://sodipodi.sourceforge.net/DTD/sodipodi-0.dtd"
   xmlns="http://www.w3.org/2000/svg"
   xmlns:svg="http://www.w3.org/2000/svg"><sodipodi:namedview
     id="namedview1"
     pagecolor="#505050"
     bordercolor="#eeeeee"
     borderopacity="1"
     inkscape:showpageshadow="0"
     inkscape:pageopacity="0"
     inkscape:pagecheckerboard="0"
     inkscape:deskcolor="#505050"
     inkscape:document-units="px"
     inkscape:zoom="9.7669124"
     inkscape:cx="8.6004662"
     inkscape:cy="4.7097791"
     inkscape:window-width="1291"
     inkscape:window-height="704"
     inkscape:window-x="0"
     inkscape:window-y="0"
     inkscape:window-maximized="1"
     inkscape:current-layer="layer1" /><defs
     id="defs1" /><g
     inkscape:label="Capa 1"
     inkscape:groupmode="layer"
     id="layer1"><path
       style="fill:#4d4d4d;stroke-width:0.0170713"
       d="m 3.4121898,14.932942 c -0.1650712,-0.07786 -0.264605,-0.226266 -0.264605,-0.394558 0,-0.0388 0.031145,-0.246778 0.069206,-0.462151 0.038061,-0.215371 0.098914,-0.564433 0.1352266,-0.77569 0.036311,-0.211256 0.097724,-0.564631 0.1364685,-0.785278 0.075294,-0.428803 0.1743979,-0.994488 0.3424309,-1.954621 C 3.9038639,10.14382 3.9322911,9.9419535 3.9249435,9.8929501 3.9191752,9.8543154 3.8897576,9.7830602 3.8596187,9.7346053 3.8222746,9.6745589 3.2711894,9.1357336 2.1291646,8.0426582 0.28113848,6.2738392 0.39024954,6.3911777 0.39086202,6.1732841 0.39112265,6.0626336 0.43454479,5.9552611 0.51216757,5.8730114 0.61555882,5.7634535 0.56017859,5.7735276 2.9043918,5.4378592 4.1132123,5.2647681 5.1598629,5.1150422 5.230282,5.1051347 5.3809741,5.0839309 5.4760738,5.0424356 5.5499072,4.9656757 5.610363,4.9028182 5.682054,4.763091 6.8504028,2.430944 7.5896255,0.9553775 7.6987142,0.7471075 7.7597463,0.69486787 c 0.173898,-0.14885004 0.434873,-0.14882026 0.6088186,6.791e-5 0.061163,0.0523486 0.1710422,0.26224192 0.922264,1.76168252 1.1807831,2.3568509 1.2266831,2.4463395 1.2865381,2.5083071 0.06245,0.064654 0.165381,0.1161032 0.260829,0.1303678 0.184428,0.027562 1.311788,0.1889763 2.87331,0.4113962 1.559859,0.2221847 1.73655,0.2504766 1.801019,0.2884013 0.08901,0.052367 0.133982,0.1006744 0.185137,0.1989413 0.05534,0.1062927 0.05521,0.2670356 -2.62e-4,0.3802012 -0.03184,0.064942 -0.355367,0.3834162 -1.595999,1.5711064 -0.85583,0.8193102 -1.613928,1.544499 -1.684663,1.6115323 -0.07074,0.067032 -0.145633,0.1559677 -0.166441,0.1976344 -0.07696,0.1540862 -0.08706,0.068946 0.201268,1.6937997 0.03665,0.206563 0.07876,0.448549 0.09357,0.537745 0.0148,0.0892 0.06878,0.400322 0.119959,0.691388 0.333033,1.894254 0.320018,1.814064 0.309487,1.906547 -0.02676,0.235184 -0.237258,0.404829 -0.47828,0.385481 -0.119452,-0.0096 -0.04617,0.02601 -1.555649,-0.755609 C 10.574467,14.024247 9.9867877,13.720699 9.634694,13.539304 9.2825987,13.357908 8.8293561,13.123838 8.6274883,13.019146 8.2056001,12.800349 8.1751459,12.788074 8.0573207,12.78933 c -0.1252726,0.0012 -0.03847,-0.04027 -1.5295998,0.733164 -0.230035,0.119317 -0.5718877,0.295964 -0.7596716,0.392553 -0.1877838,0.09659 -0.5219547,0.269462 -0.7426006,0.384163 -0.2206459,0.114703 -0.606323,0.313349 -0.8570592,0.441435 -0.4433153,0.22646 -0.458846,0.232876 -0.5633522,0.232714 -0.077126,-1.2e-4 -0.1315641,-0.01154 -0.192826,-0.04042 z"
       id="path1" /></g></svg>
