<?xml version="1.0" encoding="UTF-8" standalone="no"?>
<!-- Created with Inkscape (http://www.inkscape.org/) -->

<svg
   width="48"
   height="48"
   viewBox="0 0 48 48"
   version="1.1"
   id="svg1"
   xml:space="preserve"
   inkscape:version="1.3.2 (1:1.3.2+202311252150+091e20ef0f)"
   sodipodi:docname="whatsapp-icon.svg"
   xmlns:inkscape="http://www.inkscape.org/namespaces/inkscape"
   xmlns:sodipodi="http://sodipodi.sourceforge.net/DTD/sodipodi-0.dtd"
   xmlns="http://www.w3.org/2000/svg"
   xmlns:svg="http://www.w3.org/2000/svg"><sodipodi:namedview
     id="namedview1"
     pagecolor="#505050"
     bordercolor="#eeeeee"
     borderopacity="1"
     inkscape:showpageshadow="0"
     inkscape:pageopacity="0"
     inkscape:pagecheckerboard="0"
     inkscape:deskcolor="#505050"
     inkscape:document-units="px"
     inkscape:zoom="4.6041667"
     inkscape:cx="12.81448"
     inkscape:cy="29.972851"
     inkscape:window-width="1291"
     inkscape:window-height="704"
     inkscape:window-x="0"
     inkscape:window-y="0"
     inkscape:window-maximized="1"
     inkscape:current-layer="layer1" /><defs
     id="defs1" /><g
     inkscape:label="Capa 1"
     inkscape:groupmode="layer"
     id="layer1"><path
       style="fill:#ffffff;stroke-width:0.0931931"
       d="M 21.896834,47.800298 C 17.366083,47.333118 13.288499,45.742864 9.6449874,43.022088 8.4994583,42.166668 5.959274,39.625778 5.1020024,38.477839 2.6487944,35.192848 1.0859801,31.481398 0.50292325,27.555716 -0.44063812,21.202761 1.1835511,14.850007 5.0876159,9.6234218 5.957448,8.4589258 8.491886,5.9211887 9.6449874,5.0601159 11.520827,3.6593411 13.820439,2.4027819 15.932473,1.6244991 c 5.716648,-2.10658563 12.475499,-1.85028027 17.972572,0.6815434 2.898823,1.3351296 5.140462,2.931353 7.375963,5.2522734 3.517281,3.6516651 5.720444,8.1895041 6.441567,13.2676221 0.23783,1.674827 0.23783,4.755502 0,6.430329 -0.579654,4.081906 -2.151825,7.87526 -4.650828,11.221572 -0.864963,1.158237 -3.400837,3.691295 -4.56884,4.563767 -3.264208,2.438288 -6.953284,3.990367 -10.901421,4.586477 -1.426513,0.215384 -4.411949,0.305509 -5.704652,0.172215 z m 4.245733,-11.973892 c 3.577699,-0.583067 6.871195,-3.005184 8.570569,-6.303004 0.913478,-1.772705 1.308946,-3.429048 1.308946,-5.482299 0,-1.433024 -0.157381,-2.47839 -0.557406,-3.702514 -1.358984,-4.158652 -4.99398,-7.325667 -9.281365,-8.086452 -1.100141,-0.195219 -3.019592,-0.197406 -4.124175,-0.0047 -4.333149,0.755959 -7.938453,3.8623 -9.340821,8.04808 -0.397782,1.187302 -0.567499,2.30613 -0.56817,3.745584 -8.28e-4,2.100446 0.395293,3.72603 1.357969,5.570618 l 0.499746,0.957556 -0.917677,2.024624 c -0.504722,1.113544 -0.925733,2.108499 -0.935582,2.211011 -0.04205,0.43757 0.01925,0.635776 0.27596,0.892504 0.458953,0.458951 1.016093,0.379244 4.491934,-0.642633 1.371022,-0.40307 1.574656,-0.441302 1.770672,-0.332439 1.963087,1.090259 4.880757,1.522684 7.4494,1.104064 z M 22.47255,33.784525 c -0.951894,-0.168511 -2.076904,-0.544858 -2.973372,-0.994677 -0.396096,-0.198749 -0.79711,-0.361361 -0.891145,-0.361361 -0.09403,0 -0.921734,0.207668 -1.83934,0.461488 -0.917606,0.253821 -1.676408,0.45302 -1.686224,0.442667 -0.0098,-0.01041 0.249915,-0.605938 0.577182,-1.323526 0.327269,-0.717587 0.595671,-1.430515 0.596449,-1.584284 8.29e-4,-0.177006 -0.186613,-0.586853 -0.511076,-1.117098 -0.624301,-1.02024 -1.005431,-1.91605 -1.276979,-3.001387 -0.170553,-0.681674 -0.204478,-1.073418 -0.200205,-2.311842 0.0045,-1.294576 0.03659,-1.609231 0.243962,-2.387505 0.472263,-1.772628 1.298756,-3.198096 2.620813,-4.520155 1.321425,-1.32142 2.745391,-2.147276 4.520157,-2.621539 0.790972,-0.211368 1.077292,-0.239545 2.434101,-0.239545 1.356809,0 1.643133,0.02818 2.434101,0.239545 1.774766,0.474263 3.198737,1.300119 4.520156,2.621539 1.322048,1.322048 2.1194,2.695199 2.61041,4.495478 0.225459,0.826659 0.251216,1.07874 0.251216,2.45878 0,1.380038 -0.02576,1.63212 -0.251216,2.458778 -0.49101,1.80028 -1.288362,3.173429 -2.61041,4.495477 -1.330035,1.330034 -2.720938,2.134874 -4.495477,2.601285 -1.148207,0.301789 -2.958052,0.385274 -4.073103,0.187882 z m 5.865067,-4.382717 c 0.914008,-0.271431 1.713621,-1.262086 1.713621,-2.123041 0,-0.352404 -0.04978,-0.450865 -0.396072,-0.783395 -0.498499,-0.478686 -1.083291,-0.811852 -1.77166,-1.009346 -0.769966,-0.220902 -1.069062,-0.102351 -1.580863,0.626588 -0.219176,0.312163 -0.470668,0.61233 -0.558875,0.667036 -0.37532,0.232777 -2.035338,-0.700395 -3.048837,-1.713898 -0.595648,-0.595646 -1.40385,-1.698511 -1.40385,-1.915674 0,-0.05525 0.166396,-0.323461 0.369773,-0.596047 0.51105,-0.684968 0.601199,-0.997916 0.469795,-1.630902 -0.228623,-1.101264 -1.010951,-2.186376 -1.671553,-2.318498 -0.423529,-0.0847 -0.873501,0.09395 -1.324135,0.525736 -1.527656,1.463751 -1.068751,3.879484 1.228966,6.46941 2.418091,2.725614 5.941337,4.405575 7.97369,3.802031 z"
       id="path1" /></g></svg>
